Coordinates
version=1
nRows=8
nColumns=29
inDegrees=yes

Units are S.I. units (second, meters, Newtons, ...)
Angles are in degrees.

endheader
time	pelvis_rz	pelvis_rx	pelvis_ry	pelvis_tx	pelvis_ty	pelvis_tz	hip_flexion_r	hip_adduction_r	hip_rotation_r	knee_angle_r	tp_r3	tp_tx	tp_ty	tp_tz	ankle_angle_r	subtalar_angle_r	mtp_angle_r	hip_flexion_l	hip_adduction_l	hip_rotation_l	knee_angle_l	ltp_r3	ltp_tx	ltp_ty	ltp_tz	ankle_angle_l	subtalar_angle_l	mtp_angle_l
      5.36229630	     -0.68366282	     16.01238966	     83.44044807	     -0.07643020	     -0.07637018	      2.82378408	    -21.67845914	     -9.27584519	      5.52008451	     -6.12720940	      6.25142302	      0.04889996	     -0.02245224	      0.00240000	     16.68579362	     15.40546978	      0.00000000	    -27.40361487	     -1.29017430	     17.60700700	     -0.57590646	      0.62868212	      0.04953895	     -0.02266708	     -0.00240000	     29.74306496	    -18.91327091	      0.00000000
      5.39933333	     -0.76516578	     15.52148857	     83.33259600	     -0.07618396	     -0.07670543	      2.82340160	    -21.09364169	     -9.29139289	      6.92450069	     -6.20362840	      6.31606610	      0.04889053	     -0.02244925	      0.00240000	     16.69001091	     14.26347093	      0.00000000	    -26.88794648	     -1.21508773	     17.62918841	     -0.54541996	      0.59241858	      0.04954220	     -0.02266824	     -0.00240000	     29.74869695	    -18.92309085	      0.00000000
      5.43637037	     -0.81048180	     15.77450141	     83.46634145	     -0.07631384	     -0.07639228	      2.82370487	    -21.38302955	     -9.36868857	      5.36281468	     -6.18812777	      6.30298004	      0.04889244	     -0.02244986	      0.00240000	     16.67156812	     15.55265837	      0.00000000	    -27.10562686	     -1.20209138	     17.81155455	     -0.53249540	      0.57702504	      0.04954358	     -0.02266874	     -0.00240000	     29.75295934	    -18.92868728	      0.00000000
      5.47340741	     -0.83087276	     15.74119826	     83.40187317	     -0.07623481	     -0.07635234	      2.82374041	    -21.31087470	     -9.40281357	      5.78683476	     -6.20985334	      6.32131752	      0.04888976	     -0.02244901	      0.00240000	     16.60922761	     15.29323359	      0.00000000	    -27.06625502	     -1.15256977	     17.78432802	     -0.51537564	      0.55662303	      0.04954541	     -0.02266939	     -0.00240000	     29.75661086	    -18.93404396	      0.00000000
      5.51044444	     -0.87598431	     15.71244853	     83.45140998	     -0.07620188	     -0.07632329	      2.82374538	    -21.29831401	     -9.40500758	      6.01559576	     -6.18767450	      6.30259669	      0.04889250	     -0.02244987	      0.00240000	     16.60429210	     14.92540741	      0.00000000	    -27.01271300	     -1.13804457	     17.92572538	     -0.50462170	      0.54378968	      0.04954656	     -0.02266981	     -0.00240000	     29.75910038	    -18.94730697	      0.00000000
      5.54748148	     -0.92033074	     15.74552518	     83.48902979	     -0.07620689	     -0.07622384	      2.82384836	    -21.32098317	     -9.46412580	      5.34119427	     -6.20964513	      6.32114195	      0.04888978	     -0.02244902	      0.00240000	     16.63469816	     15.54758490	      0.00000000	    -27.01889562	     -1.10608070	     17.98345245	     -0.49178880	      0.52847077	      0.04954793	     -0.02267030	     -0.00240000	     29.76215373	    -18.94594192	      0.00000000
      5.58451852	     -0.95773916	     15.64178630	     83.48704263	     -0.07616673	     -0.07625525	      2.82377328	    -21.19807131	     -9.48730639	      5.40975679	     -6.22576294	      6.33473430	      0.04888779	     -0.02244839	      0.00240000	     16.59909346	     15.48195881	      0.00000000	    -26.89914912	     -1.07784572	     18.03374478	     -0.48132506	      0.51597183	      0.04954904	     -0.02267070	     -0.00240000	     29.76481369	    -18.94839127	      0.00000000
      5.62155556	     -0.99687579	     15.54751941	     83.58380330	     -0.07621172	     -0.07638258	      2.82364380	    -21.13511361	     -9.47971162	      5.41858919	     -6.20924933	      6.32081159	      0.04888983	     -0.02244903	      0.00240000	     16.82953975	     15.47925732	      0.00000000	    -26.78639982	     -1.09580802	     18.03647803	     -0.48561545	      0.52110126	      0.04954858	     -0.02267053	     -0.00240000	     29.76635980	    -18.85704365	      0.00000000
